<?xml version="1.0" encoding="UTF-8"?>
<svg width="100" height="100" viewBox="0 0 100 100" xmlns="http://www.w3.org/2000/svg">
  <!-- Icône de berline Mercedes - blanc -->
  <g fill="#FFFFFF" stroke="none">
    <!-- Carrosserie principale (profil berline élégant) -->
    <path d="M 15 60 L 20 52 L 28 45 L 35 42 L 45 40 L 55 40 L 65 42 L 72 45 L 80 52 L 85 60 L 85 68 L 80 72 L 20 72 L 15 68 Z"/>

    <!-- Toit incliné (style berline) -->
    <path d="M 30 45 L 35 42 L 50 40 L 65 42 L 70 45 L 68 48 L 32 48 Z"/>

    <!-- Fenêtres avant -->
    <path d="M 32 43 L 37 41 L 48 41 L 50 43 L 50 47 L 32 47 Z" fill="#000000" opacity="0.4"/>

    <!-- Fenêtres arrière -->
    <path d="M 52 43 L 54 41 L 63 41 L 68 43 L 68 47 L 52 47 Z" fill="#000000" opacity="0.4"/>

    <!-- Roues avant -->
    <circle cx="30" cy="72" r="7" fill="#FFFFFF"/>
    <circle cx="30" cy="72" r="4" fill="#333333"/>

    <!-- Roues arrière -->
    <circle cx="70" cy="72" r="7" fill="#FFFFFF"/>
    <circle cx="70" cy="72" r="4" fill="#333333"/>

    <!-- Détails calandre Mercedes -->
    <circle cx="17" cy="56" r="1.5" fill="#FFFFFF" opacity="0.8"/>
    <circle cx="20" cy="56" r="1.5" fill="#FFFFFF" opacity="0.8"/>

    <!-- Ligne de caractère -->
    <path d="M 25 55 L 75 55" stroke="#FFFFFF" stroke-width="0.5" opacity="0.3"/>
    <path d="M 28 62 L 72 62" stroke="#FFFFFF" stroke-width="0.8" opacity="0.5"/>

    <!-- Détails poignées -->
    <rect x="47" y="52" width="6" height="2" rx="1" fill="#FFFFFF" opacity="0.6"/>
  </g>
</svg>
